<?xml version="1.0" encoding="utf-8"?>
<!-- Generator: Adobe Illustrator 25.4.1, SVG Export Plug-In . SVG Version: 6.00 Build 0)  -->
<svg version="1.1" xmlns="http://www.w3.org/2000/svg" xmlns:xlink="http://www.w3.org/1999/xlink" x="0px" y="0px"
	 viewBox="0 0 595.28 373.54" style="enable-background:new 0 0 595.28 373.54;" xml:space="preserve">
<style type="text/css">
	.st0{display:none;}
	.st1{display:inline;fill:#002857;}
	.st2{fill:#FFFFFF;}
	.st3{fill:#009FE3;}
	.st4{fill:#002857;}
	.st5{fill:#FFDD00;}
	.st6{fill:#E30613;}
</style>
<g id="Calque_2" class="st0">
	<rect class="st1" width="595.28" height="373.54"/>
</g>
<g id="FOND_x5F_BLANC">
	<path class="st2" d="M553.66,247.48c-3.33-2.94-7.78-4.25-12.17-3.59l-5.81,0.88l0.85-33.37c0.09-3.51-1.07-6.9-3.21-9.62
		l2.93-0.44c6.72-1.02,11.73-6.71,11.9-13.5l1.31-52.94c0.1-4.14-1.63-8.11-4.74-10.85c-3.1-2.74-7.26-3.96-11.35-3.34l-16.9,2.55
		c-2.68,0.41-5.1,1.56-7.04,3.23c-2.39-1.04-5.04-1.4-7.67-1l-16.75,2.53c-2.82,0.43-5.33,1.69-7.32,3.5
		c-0.56-0.16-1.12-0.31-1.7-0.45c-4.69-1.13-9.78-1.41-15.17-0.83c1.24-3.15,1.37-6.64,0.27-9.91L445.06,72.5
		c-2.24-6.69-8.93-10.79-15.92-9.73l-16.93,2.56c-4.95,0.75-9.23,4.07-11.18,8.68l-0.05,0.12c-0.48-0.58-1-1.12-1.58-1.62
		c-3.22-2.84-7.51-4.1-11.76-3.46l-22.42,3.39c-3.17,0.48-6.07,2.01-8.26,4.27c-2.76-1.52-5.99-2.12-9.16-1.64l-20.47,3.09
		c-6.97,1.05-12.16,6.93-12.33,13.98l-0.23,9.47c-0.11-0.06-0.22-0.12-0.34-0.18c-0.38-0.2-0.76-0.4-1.13-0.59
		c-0.07-0.03-0.13-0.07-0.2-0.1c-0.92-0.46-1.85-0.87-2.78-1.24c-0.07-0.03-0.13-0.05-0.2-0.08c-0.4-0.16-0.8-0.31-1.19-0.45
		c-0.08-0.03-0.15-0.06-0.23-0.08c-0.42-0.15-0.84-0.29-1.27-0.43c-0.03-0.01-0.07-0.02-0.1-0.03c-1.43-0.45-2.86-0.82-4.3-1.12
		c-0.02,0-0.04-0.01-0.06-0.01c-0.47-0.1-0.94-0.19-1.42-0.27c0,0,0,0,0,0c-2.34-0.41-4.68-0.65-7.03-0.78c-0.01,0-0.02,0-0.04,0
		c-0.72-0.04-1.43-0.07-2.15-0.09c-0.01,0-0.03,0-0.04,0c-2.85-0.07-5.71-0.01-8.56,0.1c-0.1,0-0.21,0.01-0.31,0.01
		c-0.54,0.02-1.08,0.04-1.63,0.06c-4.15,0.17-8.29,0.35-12.42,0.26c-0.63-0.01-1.27-0.03-1.9-0.06c-0.05,0-0.1-0.01-0.15-0.01
		c-0.82-0.04-1.64-0.1-2.46-0.17c-0.06-0.01-0.12-0.01-0.18-0.02c-0.83-0.07-1.66-0.16-2.49-0.27c-0.03,0-0.07-0.01-0.1-0.01
		c-0.86-0.12-1.72-0.25-2.58-0.41c-0.01,0-0.03-0.01-0.04-0.01c-0.84-0.16-1.67-0.34-2.51-0.55c-0.07-0.02-0.14-0.04-0.21-0.05
		c-0.79-0.2-1.58-0.42-2.36-0.67c-0.08-0.03-0.17-0.05-0.25-0.08c-0.79-0.25-1.58-0.53-2.37-0.84c-0.07-0.03-0.13-0.05-0.2-0.08
		c-0.84-0.34-1.69-0.7-2.53-1.11c-1.72,5.65-3.44,11.19-5.17,16.61c-1.95,6.04-5.84,17.56-8.36,25.21
		c-0.34,0.98-0.68,1.96-1.02,2.92c0.01,0.01,0.03,0.02,0.04,0.04c-0.84,2.56-1.81,5.49-2.75,8.34l-10.38-12.55
		c-1.99-2.4-4.55-6.74-5.68-9.65l-10.28-26.18c-1.14-2.9-4.61-5.52-7.72-5.81l-28-2.65c-3.1-0.29-7.98-1.55-10.84-2.8l-25.77-11.24
		c-2.86-1.25-7.16-0.64-9.57,1.35L108.4,88.37c1.37-8.99-2.68-21.33-4.56-26.41c-4.19-11.28-9.91-20.76-15.69-26
		c-3.7-3.35-9.35-5.28-15.49-5.28h0c-7.78,0-14.29,2.98-17.43,7.98c-1.86,2.96-3.37,7.95-0.04,14.84
		c4.21,8.7,11.85,12.87,19.94,17.29c2.05,1.12,4.11,2.25,6.16,3.47c-3.44-1.51-6.91-2.51-10.09-2.51h0
		c-6.47,0-11.22,3.91-13.03,10.73c-0.82,3.1-0.25,6.14,1.62,8.57c3.71,4.82,12.23,7.07,26.82,7.07c3.49,0,6.67-0.14,9.01-0.28
		c-1.2,0.65-2.37,1.21-3.37,1.6l-26.18,10.28c-2.9,1.14-5.52,4.61-5.81,7.72l-2.65,28c-0.29,3.1-1.55,7.98-2.8,10.84l-11.24,25.77
		c-1.25,2.86-0.64,7.16,1.35,9.57l17.92,21.67c1.99,2.4,4.55,6.74,5.68,9.65l10.28,26.18c1.14,2.9,4.61,5.52,7.72,5.81l28,2.65
		c1.27,0.12,2.83,0.41,4.43,0.78c-0.2,3.43-0.13,7.14,0.42,11.01c-0.97,0.12-1.96,0.25-3,0.39c-3.58,0.46-7.63,0.99-12.01,1.52
		l-0.09,0.01l-0.09,0.01c-29.63,4.27-39.15,8.62-40.75,18.59l-0.01,0.05l-0.01,0.05c-0.42,2.87,0.26,5.64,1.92,7.79
		c2.84,3.69,7.13,4.18,10.58,4.57c2.79,0.32,5.67,0.64,8.05,2.21c2.22,1.46,3.14,2.82,5.19,6.02c0.31,0.48,0.62,0.97,0.95,1.48
		c2.64,4.06,6.84,6.3,11.82,6.3c11.51,0,25.9-12.43,39.66-25.16c1.65-1.53,3.52-3.26,4.07-3.67l0.48-0.35l0.41-0.41
		c0.18-0.18,0.33-0.37,0.5-0.55c4.29-3.34,8.85-6.11,12.4-6.21c6.14-0.17,10.68,1.46,14.87,3.48c13.22,7.06,27.99,14.36,38.65,14.36
		c10.45,0,13.83-6.76,14.8-9.67c0.19-0.58,0.37-1.13,0.55-1.67c1.17-3.62,1.72-5.16,3.51-7.14c1.91-2.12,4.62-3.16,7.23-4.17
		c1.11-0.43,2.31-0.89,3.49-1.49l0,0.04c0,0,3.5-2.03,5.87-2.03c1.5,0,2.78,0.5,3.82,1.14l-1.16,45.3
		c-0.11,4.43,1.74,8.69,5.07,11.63c2.76,2.44,6.3,3.75,9.93,3.75c0.75,0,1.5-0.06,2.24-0.17l22.62-3.42
		c7.16-1.08,12.53-7.13,12.75-14.37l0.33-10.93c4.1-0.91,7.89-2.09,11.33-3.53c2.29-0.96,4.44-2.07,6.46-3.29
		c0.07,0.12,0.13,0.25,0.2,0.37c3.17,5.5,7.37,10.12,12.47,13.73c5.07,3.59,10.99,6.06,17.59,7.35c3.25,0.64,6.68,0.95,10.25,0.95
		c3.23,0,6.57-0.26,10.02-0.78h0c8.35-1.26,15.91-3.9,22.46-7.85c6.57-3.96,12.09-8.94,16.4-14.81c0.23-0.32,0.45-0.65,0.67-0.97
		c1.42,1.33,2.93,2.58,4.53,3.71c5.07,3.59,10.99,6.06,17.59,7.35c3.25,0.64,6.68,0.95,10.25,0.95c3.23,0,6.58-0.26,10.02-0.78
		c0,0,0,0,0,0c8.35-1.26,15.91-3.9,22.46-7.85c3.04-1.83,5.85-3.89,8.42-6.15c0.53,0.65,1.09,1.28,1.73,1.84
		c2.76,2.44,6.29,3.75,9.93,3.75c0.75,0,1.5-0.06,2.24-0.17l46.42-7.02c7.19-1.09,12.57-7.17,12.75-14.44l0.51-19.9
		C558.84,254.68,556.99,250.42,553.66,247.48z M72.41,35.69c0.08,0,0.16,0,0.25,0c0.1,0,0.19,0.01,0.29,0.01
		C72.77,35.7,72.59,35.69,72.41,35.69z"/>
</g>
<g id="Mascotte">
	<path class="st3" d="M71.31,291.13c0.58-3.64,3.69-7.56,33.99-11.93c17.59-2.11,29.22-4.14,32.41-3.01
		c2.38,0.95,6.17,3.93,3.2,6.86c-4.64,3.37-36.19,36.82-44.12,24.63c-2.62-4.03-4.2-7.03-8.46-9.83
		C80.1,292.45,70.58,296.14,71.31,291.13z"/>
	<path class="st3" d="M240.65,265.19c-1.48-3.38-5.47-6.39-35.9-2.99c-17.55,2.39-29.33,3.35-32.12,5.25
		c-2.07,1.51-4.98,5.36-1.37,7.45c5.34,2.09,44.3,26.52,48.9,12.73c1.52-4.56,2.29-7.86,5.71-11.64
		C232.47,268.69,242.62,269.86,240.65,265.19z"/>
	<path class="st4" d="M128.89,283.66c-11.26-20.17-1.84-41.87-1.44-42.78l6.26,2.78l-3.13-1.39l3.13,1.38
		c-0.08,0.19-8.41,19.55,1.16,36.67L128.89,283.66z"/>
	<path class="st3" d="M59.7,51.33c-7.56-15.63,16.33-19.6,25.1-11.66c11.09,10.04,21.05,37.72,18.48,48.99
		C89.86,66.03,67.26,66.96,59.7,51.33z"/>
	<g>
		<path class="st3" d="M181.95,271.75c0,0,0.5-24.44-5.15-36.73"/>
		<path class="st4" d="M185.38,271.82l-6.84-0.14c0-0.24,0.42-23.8-4.84-35.23l6.22-2.86C185.82,246.45,185.4,270.79,185.38,271.82z
			"/>
	</g>
	<path class="st5" d="M226.52,156.44c2.1,2.3,2.69,6.47,1.3,9.26l-10.45,21.05c-1.39,2.79-2.64,7.63-2.78,10.74l-1.05,23.49
		c-0.14,3.11-2.67,6.48-5.63,7.47l-22.28,7.5c-2.96,0.99-7.26,3.53-9.56,5.63l-17.35,15.86c-2.3,2.1-6.47,2.69-9.26,1.3
		l-21.05-10.45c-2.79-1.39-7.63-2.64-10.74-2.78l-23.49-1.05c-3.11-0.14-6.48-2.67-7.47-5.63l-7.5-22.28
		c-0.99-2.96-3.53-7.26-5.63-9.56l-15.86-17.35c-2.1-2.3-2.69-6.47-1.3-9.26l10.45-21.05c1.39-2.79,2.64-7.63,2.78-10.74l1.05-23.49
		c0.14-3.11,2.67-6.48,5.63-7.47l22.28-7.5c2.96-0.99,7.26-3.53,9.56-5.63l17.35-15.86c2.3-2.1,6.47-2.69,9.26-1.3l21.05,10.45
		c2.79,1.39,7.63,2.64,10.74,2.78l23.49,1.05c3.11,0.14,6.48,2.67,7.47,5.63l7.5,22.28c0.99,2.96,3.53,7.26,5.63,9.56L226.52,156.44
		z"/>
	<path class="st3" d="M63,83.76c5.29-19.87,36.13,8.8,36.13,8.8S59.63,96.42,63,83.76z"/>
	<path class="st2" d="M124.29,201.62c5.29,20.31,38.6,23.76,37.43-5.32L124.29,201.62z"/>
	<path class="st4" d="M215.49,139.35c0.17,1.52-0.33,2.51-1.48,3.26c-1.76,0.82-2.81,2.48-3.55,4.11c-0.94,2.58-1.58,5.12-1.91,7.63
		c-0.73,4.41-1.5,8.51-2.57,12.65c-1.07,4.14-3.81,7.23-7.53,9.82c-7.78,4.9-17.84,6.05-23.1,6.03c-4.64-0.09-9.09-1.13-13.36-3.42
		c-7.26-4.11-11.96-10.06-15-17.75c-0.82-1.76-1.33-3.55-2.46-5.28c-0.71-0.85-1.39-1.39-2.38-1.89c-0.64-0.24-1.59-0.44-2.2-0.37
		c-0.61,0.07-1.49,0.48-2.06,0.85c-0.88,0.41-1.39,1.39-1.89,2.38c-0.71,1.93-0.8,3.8-1.2,5.7c-1.23,8.17-4.46,15.03-10.62,20.67
		c-3.35,3.16-7.75,5.21-12.25,6.34c-5.38,1.54-15.14,2.65-23.86-0.68c-4.17-1.38-7.53-3.77-9.55-7.87
		c-1.98-3.79-3.68-7.92-5.36-11.74c-0.89-2.37-2.12-5.01-3.58-7.01c-1.09-1.42-2.45-2.5-4.38-3.21c-1.29-0.47-2.04-1.62-2.18-2.84
		c-0.28-2.44-0.25-4.91-0.53-7.35c1.18-0.44,2.4-0.58,3.62-0.72c4.23-0.79,8.5-1.28,12.74-2.07c31.5-5.45,44.35-3.82,49-3.73
		c3.69-0.11,7.39-0.22,11.05-0.64c3.66-0.42,7.32-0.83,10.91-1.86c4.5-1.13,16.35-5.57,48.58-7.39c4.3-0.18,8.57-0.67,12.88-0.85
		c1.22-0.14,2.47,0.03,3.69-0.11C215.27,134.74,215.51,136.88,215.49,139.35z M88.21,182.59l28.16-34.72
		c-2.2-0.37-4.37-0.43-6.85-0.45c-4.34-0.12-12.88,0.85-13.18,0.89c-3.66,0.42-7.32,0.83-10.91,1.86c-1.49,0.48-3.28,0.99-4.7,2.08
		c-1.46,0.78-1.96,1.77-2.16,2.72c-0.24,0.64-0.17,1.25-0.1,1.86c0.29,5.22,1.22,10.67,2.76,16.06
		C82.33,177.09,84.85,180.2,88.21,182.59z M164.14,173.93l29.31-35.47c-3.39,0.08-19.89,1.65-23.78,2.71
		c-3.01,0.65-6.94,1.41-10.39,3.66c-1.73,1.12-3.15,2.21-4.23,3.57c-1.35,1.7-1.75,3.6-1.44,6.34c0.35,3.05,1.34,6.33,3.01,10.16
		c1.26,2.94,3.1,5.52,5.48,7.41C162.48,172.89,163.46,173.39,164.14,173.93z"/>
</g>
<g id="LETTRAGE">
	<g id="_x30_2_x5F_LETTRE_x5F_BLEUES">
		<g>
			<path class="st4" d="M540.09,129.31c-1.55-1.37-3.62-1.98-5.68-1.67l-16.9,2.55c-3.36,0.51-5.87,3.35-5.95,6.75l-0.31,12.3
				l-0.65,0.1l0.25-9.82c0.05-2.07-0.81-4.06-2.37-5.42c-1.55-1.37-3.63-1.98-5.68-1.67l-16.75,2.53c-2.75,0.42-4.93,2.41-5.68,4.98
				c-1.83-0.83-3.84-1.52-6.03-2.05c-4.48-1.08-9.46-1.22-14.8-0.41c-5.45,0.82-10.42,2.63-14.76,5.35
				c-4.13,2.6-7.64,5.85-10.44,9.66l0.03-1.41c0.05-2.07-0.82-4.05-2.37-5.42c-1.55-1.37-3.62-1.98-5.68-1.67l-16.39,2.48
				c-3.41,0.52-5.93,3.43-5.95,6.88l-0.01,2.04l-1.84-3.22c-1.43-2.51-4.26-3.88-7.12-3.44l-16.53,2.5
				c-1.8,0.27-3.35,1.22-4.42,2.56c-1.45-0.98-3.22-1.4-4.98-1.14l-33.72,5.1c-3.36,0.51-5.87,3.35-5.95,6.75l-0.12,4.8
				c-1.55-1.84-3.41-3.37-5.58-4.55c-2.56-1.39-5.5-2.3-8.75-2.69c-2.99-0.36-6.24-0.28-9.67,0.24l-21.19,3.2
				c-1.53,0.23-2.88,0.95-3.91,1.98c-1.31-0.7-2.82-0.97-4.32-0.74l-33.21,5.02c-3.36,0.51-5.87,3.35-5.95,6.75l-1.31,52.94
				c-0.05,2.07,0.82,4.05,2.37,5.42c1.29,1.14,2.94,1.75,4.63,1.75c0.35,0,0.7-0.03,1.05-0.08l16.53-2.5
				c3.36-0.51,5.87-3.35,5.95-6.75l0.3-12.37l10-1.51c0.29-0.04,0.58-0.11,0.86-0.19l-0.25,9.96c-0.05,2.07,0.82,4.05,2.37,5.42
				c1.29,1.14,2.94,1.75,4.63,1.75c0.35,0,0.7-0.03,1.05-0.08l16.24-2.46c2.65-0.4,4.77-2.25,5.59-4.68
				c1.52,2.11,4.1,3.22,6.72,2.82l18.93-2.86c0.65-0.1,1.27-0.29,1.85-0.56c0.29,0.04,0.59,0.06,0.89,0.06
				c0.35,0,0.7-0.03,1.05-0.08l35.83-5.42c1.33-0.2,2.52-0.77,3.48-1.59c0.87,0.37,1.8,0.57,2.75,0.57c0.35,0,0.7-0.03,1.05-0.08
				l16.39-2.48c3.41-0.52,5.94-3.44,5.95-6.88l0.01-1.16l1.45,2.47c1.45,2.47,4.26,3.81,7.09,3.39l16.97-2.57
				c3.36-0.51,5.87-3.35,5.95-6.75l0.19-7.79c1.73,2.3,3.78,4.29,6.13,5.91c3.21,2.23,6.95,3.75,11.09,4.54
				c2.05,0.39,4.21,0.59,6.47,0.59c2.1,0,4.27-0.17,6.51-0.51c3.03-0.46,5.83-1.16,8.31-2.07c2.43-0.9,4.64-1.93,6.58-3.07
				c0.93-0.54,1.81-1.12,2.64-1.72c0.06,0.05,0.11,0.11,0.17,0.17c1.29,1.14,2.94,1.75,4.63,1.75c0.35,0,0.7-0.03,1.05-0.08
				l16.82-2.54c3.36-0.51,5.87-3.35,5.95-6.75l0.36-14.47l0.65-0.1l-0.3,12c-0.05,2.07,0.82,4.05,2.37,5.42
				c1.55,1.37,3.62,1.98,5.68,1.67l16.82-2.54c3.36-0.51,5.87-3.35,5.95-6.75l1.31-52.94C542.51,132.66,541.65,130.68,540.09,129.31
				z M479.27,175.81l-2.13-2.33c-1.4-1.53-3.38-2.36-5.46-2.27c-2.07,0.09-3.99,1.08-5.25,2.72c-0.54,0.7-1.26,1.37-2.13,1.97
				c-0.62,0.42-1.28,0.68-2.08,0.8c-1.36,0.21-1.94,0.02-2.02-0.04c-0.33-0.27-0.69-0.64-0.85-1.68c-0.18-1.18-0.17-2.26,0.01-3.29
				c0.17-0.96,0.47-1.77,0.91-2.49c0.37-0.61,0.84-1.12,1.43-1.54c0.5-0.35,1.11-0.57,1.87-0.69c0.86-0.13,1.59-0.12,2.19,0.04
				c0.27,0.07,0.4,0.16,0.53,0.3c1.44,1.53,3.49,2.33,5.57,2.18c2.09-0.14,4.01-1.21,5.22-2.92l2.5-3.51L479.27,175.81z"/>
			<path class="st4" d="M549.57,253.21c-1.66-1.47-3.89-2.12-6.08-1.79l-14.66,2.22l1.08-42.31c0.06-2.22-0.87-4.35-2.54-5.81
				s-3.89-2.12-6.08-1.79l-22.92,3.46c-3.6,0.54-6.28,3.59-6.38,7.22l-0.42,16.49c-0.08-0.14-0.15-0.28-0.22-0.41
				c-2.63-4.55-6.09-8.37-10.31-11.35c-4.2-2.97-9.14-5.02-14.7-6.11c-5.35-1.05-11.34-1.08-17.8-0.1
				c-7.31,1.1-13.91,3.41-19.62,6.84c-5.73,3.45-10.5,7.77-14.19,12.84c-2.23,3.07-4.07,6.39-5.51,9.93
				c-2.6-4.39-5.99-8.1-10.11-11.02c-4.2-2.97-9.14-5.02-14.7-6.11c-5.35-1.04-11.34-1.08-17.8-0.1
				c-7.31,1.11-13.91,3.41-19.62,6.84c-5.73,3.45-10.5,7.77-14.19,12.84c-1.3,1.78-2.46,3.66-3.49,5.6
				c-2.27-3.76-5.45-6.84-9.45-9.1c-6.79-3.83-15.62-4.95-26.26-3.35l-25.97,3.93c-3.6,0.54-6.28,3.59-6.38,7.22l-1.82,71.16
				c-0.06,2.22,0.87,4.35,2.53,5.81c1.38,1.22,3.15,1.88,4.96,1.88c0.37,0,0.75-0.03,1.12-0.08l22.62-3.42
				c3.58-0.54,6.26-3.57,6.38-7.19l0.52-16.98l0.51-0.08c5.7-0.86,10.83-2.24,15.23-4.09c4.74-1.99,8.75-4.62,11.93-7.82
				c0.16-0.16,0.31-0.33,0.47-0.5c0.92,3.06,2.14,5.93,3.66,8.56c2.62,4.55,6.09,8.37,10.31,11.35c4.2,2.97,9.15,5.03,14.7,6.11
				c2.78,0.54,5.73,0.82,8.81,0.82c2.85,0,5.82-0.23,8.9-0.7c7.37-1.12,14.01-3.42,19.72-6.86c5.72-3.44,10.5-7.75,14.22-12.82
				c2.24-3.06,4.08-6.37,5.52-9.89c2.6,4.37,5.98,8.06,10.06,10.95c4.2,2.97,9.15,5.03,14.7,6.11c2.78,0.54,5.72,0.81,8.81,0.81
				c2.85,0,5.83-0.23,8.9-0.7c7.38-1.11,14.01-3.42,19.72-6.86c5.72-3.44,10.5-7.75,14.22-12.82c0.86-1.18,1.66-2.39,2.41-3.64
				l-0.18,7.14c-0.06,2.22,0.87,4.35,2.53,5.81c1.38,1.22,3.15,1.88,4.96,1.88c0.37,0,0.75-0.03,1.12-0.08l46.42-7.02
				c3.6-0.54,6.28-3.59,6.38-7.22l0.51-19.9C552.16,256.8,551.23,254.67,549.57,253.21z M376.16,270.11
				c-0.28,1.53-0.77,2.88-1.5,4.1c-0.65,1.1-1.47,2-2.51,2.74c-0.9,0.65-2.01,1.07-3.39,1.28c-1.13,0.17-2.08,0.17-2.84-0.02
				c-0.65-0.16-1.17-0.39-1.58-0.71c-0.44-0.35-0.79-0.76-1.09-1.31c-0.37-0.68-0.62-1.45-0.75-2.35c-0.23-1.53-0.2-3.05,0.09-4.65
				c0.28-1.54,0.77-2.88,1.5-4.1c0.66-1.11,1.5-2.03,2.59-2.82c0.92-0.67,2.03-1.1,3.38-1.3c0.5-0.08,0.97-0.11,1.41-0.11
				c0.49,0,0.93,0.05,1.32,0.14c0.66,0.16,1.18,0.39,1.58,0.7c0.45,0.35,0.8,0.77,1.09,1.31c0.37,0.69,0.62,1.46,0.76,2.36
				C376.48,266.96,376.45,268.52,376.16,270.11z M458.09,257.72c-0.28,1.54-0.77,2.88-1.5,4.1c-0.66,1.1-1.48,2-2.52,2.75
				c-0.9,0.65-2.01,1.07-3.38,1.28c-1.13,0.17-2.08,0.17-2.84-0.02c-0.65-0.16-1.16-0.38-1.58-0.71c-0.44-0.34-0.79-0.77-1.09-1.31
				c-0.37-0.68-0.62-1.45-0.75-2.35c-0.23-1.54-0.2-3.06,0.09-4.65c0.28-1.54,0.77-2.88,1.5-4.1c0.66-1.11,1.51-2.03,2.59-2.83
				c0.92-0.67,2.03-1.1,3.39-1.3c0.5-0.08,0.96-0.11,1.4-0.11c0.49,0,0.93,0.05,1.33,0.14c0.66,0.16,1.18,0.39,1.58,0.71
				c0.45,0.35,0.79,0.77,1.09,1.31c0.37,0.69,0.62,1.46,0.76,2.36C458.41,254.58,458.38,256.13,458.09,257.72z"/>
			<path class="st4" d="M324.63,148.2c1.28,1.13,2.92,1.75,4.63,1.75c0.35,0,0.7-0.03,1.05-0.08l14.99-2.27
				c1.66-0.25,3.15-1.08,4.23-2.32c1.39,0.86,3.06,1.22,4.73,0.97l11.31-1.71c1.77-0.27,3.35-1.21,4.44-2.57
				c1.45,0.99,3.23,1.41,5,1.15l15.62-2.36c0.48-0.07,0.97-0.21,1.47-0.41c0.57,0.05,1.06,0.02,1.58-0.05l17.91-2.71
				c2.53-0.38,4.65-2.12,5.53-4.52l1.54-4.21l5.88-0.89l0.48,1.55c1.01,3.29,4.32,5.38,7.74,4.87l16.66-2.52
				c2.05-0.31,3.85-1.5,4.93-3.27c1.08-1.77,1.32-3.91,0.66-5.87l-16.03-47.84c-1.08-3.23-4.31-5.2-7.68-4.7l-16.93,2.56
				c-2.42,0.37-4.44,1.93-5.4,4.19L397.3,104.4l0.52-20.84c0.05-2.07-0.81-4.05-2.37-5.42c-1.55-1.37-3.61-1.98-5.68-1.67
				l-22.42,3.39c-2.66,0.4-4.88,2.33-5.66,4.9l-2.36,7.83l-1.69-5.3c-1.05-3.29-4.29-5.31-7.71-4.8l-20.47,3.1
				c-3.36,0.51-5.87,3.35-5.95,6.75l-1.25,50.45C322.21,144.85,323.07,146.83,324.63,148.2z"/>
		</g>
	</g>
	<g id="_x30_1_x5F_lettres_x5F_SUP">
		<g>
			<path class="st3" d="M259.86,190.75l-0.2,6.06l15.88-2.4l-0.33,14.05l-15.8,2.39l-0.45,18.24l-16.53,2.5l1.31-52.94l33.21-5.02
				l-0.33,14.58L259.86,190.75z"/>
			<path class="st3" d="M312.4,221.02l-9.92-17.79l-2.04,0.31l-0.35,19.35l-16.24,2.46l1.31-52.94l21.19-3.2
				c2.82-0.42,5.41-0.5,7.79-0.21c2.38,0.29,4.46,0.92,6.24,1.89c1.79,0.97,3.24,2.28,4.36,3.92c1.12,1.65,1.85,3.61,2.19,5.89
				c0.65,4.27,0.17,7.94-1.43,11.02c-1.6,3.07-4.07,5.38-7.41,6.93l13.23,19.53L312.4,221.02z M304.22,192.01
				c2.23-0.34,3.92-0.98,5.07-1.92c1.15-0.94,1.6-2.24,1.35-3.89c-0.23-1.5-0.91-2.46-2.03-2.86c-1.13-0.4-2.59-0.46-4.39-0.19
				l-3.13,0.47l-0.22,8.9L304.22,192.01z"/>
			<path class="st2" d="M335.12,217.58l1.31-52.94l33.72-5.1l-0.35,14.43l-17.84,2.7l-0.12,5.08l17.04-2.58l-0.35,13.46l-17.04,2.58
				l-0.13,5.53l19.95-3.02l-0.35,14.43L335.12,217.58z"/>
			<path class="st2" d="M409.12,206.4l-14.06-24.02l-0.29,0.04l-0.14,26.17l-16.39,2.48l1.31-52.94l16.53-2.5l14.48,25.3l0.29-0.04
				l0.16-27.51l16.39-2.48l-1.31,52.94L409.12,206.4z"/>
			<path class="st6" d="M479.01,192.52c-1.2,1.1-2.6,2.12-4.19,3.06c-1.6,0.94-3.42,1.78-5.46,2.54c-2.05,0.76-4.36,1.33-6.93,1.72
				c-3.88,0.59-7.42,0.58-10.62-0.03c-3.2-0.61-6-1.75-8.41-3.42c-2.41-1.67-4.39-3.83-5.93-6.48c-1.54-2.65-2.57-5.69-3.09-9.14
				c-0.67-4.42-0.53-8.66,0.42-12.73c0.95-4.07,2.59-7.74,4.93-11.02c2.33-3.28,5.27-6.03,8.81-8.26s7.56-3.68,12.08-4.36
				c4.47-0.68,8.5-0.58,12.11,0.29c3.61,0.87,6.46,2.19,8.57,3.96l-9.9,13.86c-1.06-1.13-2.36-1.89-3.88-2.28
				c-1.52-0.39-3.18-0.45-4.98-0.18c-1.85,0.28-3.46,0.91-4.85,1.89c-1.39,0.98-2.52,2.2-3.4,3.64c-0.87,1.45-1.47,3.07-1.8,4.85
				c-0.32,1.79-0.34,3.65-0.05,5.59c0.38,2.53,1.49,4.54,3.34,6.05c1.84,1.51,4.34,2.03,7.5,1.55c1.84-0.28,3.51-0.93,5-1.95
				c1.48-1.02,2.72-2.17,3.72-3.47l10.17,11.12C481.25,190.35,480.21,191.42,479.01,192.52z"/>
			<path class="st6" d="M517.33,190.04l0.5-20.34l-14.71,2.22l-0.5,20.34l-16.82,2.54l1.31-52.94l16.75-2.53l-0.46,18.17l14.71-2.22
				l0.46-18.17l16.9-2.55l-1.31,52.94L517.33,190.04z"/>
		</g>
		<g>
			<path class="st2" d="M289.74,316.72l-22.62,3.42l1.82-71.16l25.97-3.93c8.98-1.36,16.13-0.54,21.45,2.46
				c5.32,3,8.47,7.76,9.45,14.29c0.67,4.44,0.52,8.4-0.47,11.89c-0.98,3.49-2.73,6.49-5.23,9c-2.5,2.52-5.68,4.58-9.53,6.2
				c-3.85,1.62-8.33,2.81-13.44,3.58l-6.69,1.01L289.74,316.72z M294.47,275.45c3.15-0.48,5.53-1.37,7.14-2.68
				c1.61-1.31,2.25-3.08,1.92-5.3c-0.32-2.09-1.26-3.41-2.82-3.98c-1.56-0.56-3.59-0.66-6.08-0.28l-3.44,0.52L290.83,276
				L294.47,275.45z"/>
			<path class="st2" d="M371.15,306.21c-5.58,0.84-10.62,0.82-15.15-0.06c-4.53-0.88-8.46-2.51-11.8-4.87
				c-3.34-2.36-6.06-5.36-8.15-8.98c-2.09-3.62-3.49-7.75-4.19-12.38c-0.87-5.74-0.67-11.28,0.61-16.61
				c1.27-5.33,3.46-10.14,6.57-14.41c3.11-4.27,7.11-7.88,12-10.83c4.89-2.94,10.51-4.89,16.87-5.85
				c5.64-0.85,10.72-0.84,15.25,0.05c4.53,0.88,8.46,2.51,11.8,4.87c3.34,2.37,6.06,5.36,8.15,8.98c2.09,3.62,3.49,7.75,4.19,12.38
				c0.87,5.74,0.68,11.28-0.56,16.6c-1.24,5.33-3.43,10.13-6.57,14.41c-3.14,4.28-7.16,7.89-12.04,10.83
				C383.23,303.28,377.57,305.24,371.15,306.21z M383.84,263.74c-0.27-1.76-0.79-3.37-1.58-4.82c-0.79-1.45-1.81-2.66-3.07-3.64
				c-1.25-0.98-2.73-1.67-4.44-2.08c-1.71-0.41-3.58-0.46-5.61-0.15c-2.56,0.39-4.79,1.27-6.69,2.66c-1.9,1.39-3.44,3.07-4.62,5.05
				c-1.18,1.98-1.99,4.17-2.43,6.58c-0.44,2.4-0.49,4.78-0.13,7.13c0.27,1.76,0.79,3.37,1.58,4.82c0.79,1.45,1.81,2.66,3.07,3.64
				c1.25,0.98,2.73,1.67,4.44,2.08c1.7,0.41,3.61,0.46,5.71,0.14c2.56-0.39,4.77-1.26,6.65-2.61c1.87-1.35,3.4-3.02,4.58-5
				c1.18-1.98,1.99-4.17,2.43-6.58C384.17,268.57,384.21,266.16,383.84,263.74z"/>
			<path class="st2" d="M453.08,293.82c-5.57,0.84-10.62,0.82-15.15-0.06c-4.53-0.88-8.46-2.51-11.8-4.87
				c-3.34-2.36-6.06-5.36-8.15-8.98c-2.09-3.62-3.49-7.75-4.19-12.38c-0.87-5.74-0.67-11.28,0.61-16.61
				c1.27-5.33,3.46-10.14,6.57-14.41c3.11-4.28,7.11-7.88,12-10.83c4.89-2.94,10.51-4.89,16.87-5.85
				c5.64-0.85,10.72-0.84,15.25,0.05c4.53,0.89,8.46,2.51,11.8,4.87c3.34,2.37,6.06,5.36,8.15,8.98c2.09,3.62,3.49,7.75,4.19,12.38
				c0.87,5.74,0.68,11.28-0.56,16.61s-3.43,10.13-6.57,14.41c-3.14,4.28-7.16,7.89-12.04,10.83
				C465.16,290.9,459.5,292.85,453.08,293.82z M465.77,251.36c-0.27-1.76-0.79-3.37-1.58-4.82c-0.79-1.45-1.81-2.66-3.07-3.64
				c-1.25-0.98-2.74-1.67-4.44-2.08c-1.71-0.41-3.58-0.46-5.61-0.15c-2.56,0.39-4.79,1.27-6.69,2.66c-1.9,1.39-3.44,3.07-4.62,5.05
				c-1.18,1.98-1.99,4.17-2.43,6.57c-0.44,2.4-0.49,4.78-0.13,7.13c0.27,1.76,0.79,3.37,1.58,4.82c0.79,1.45,1.81,2.66,3.07,3.64
				c1.25,0.98,2.73,1.67,4.44,2.08s3.61,0.46,5.71,0.14c2.56-0.39,4.77-1.26,6.65-2.61c1.87-1.35,3.4-3.02,4.58-5
				c1.18-1.98,1.99-4.17,2.43-6.57C466.1,256.18,466.14,253.77,465.77,251.36z"/>
			<path class="st2" d="M497.86,285.25l1.82-71.16l22.92-3.46l-1.3,51.26l23.51-3.55l-0.51,19.9L497.86,285.25z"/>
		</g>
		<g>
			<path class="st2" d="M373.38,135.83l1.18-29.28l-0.42,0.06l-10.2,30.65l-11.31,1.71l-8.67-27.79l-0.35,0.05l0.07,29.09
				l-14.99,2.27l1.25-50.45l20.47-3.1l8.37,26.28l0.35-0.05l8.7-28.86l22.42-3.39L389,133.47L373.38,135.83z"/>
			<path class="st2" d="M431.13,127.1l-2.24-7.33l-15.96,2.41l-2.96,8.12l-17.91,2.71l22.76-53.7l16.93-2.56l16.03,47.84
				L431.13,127.1z M422.34,95.28l-5.1,13.69l8.47-1.28L422.34,95.28z"/>
		</g>
	</g>
</g>
<g id="DRAPEAU">
	<g>
		<path class="st3" d="M270.22,103.84c-5.18,0.05-9.74-0.51-14.9-2.76c-3.25,12.29-6.55,23.95-9.89,34.73
			c4.98,4.49,9.96,6.83,14.96,7.97L270.22,103.84"/>
		<path class="st2" d="M297.02,103.46c-0.04-0.01-0.07-0.01-0.11-0.02C296.95,103.45,296.98,103.46,297.02,103.46L297.02,103.46z"/>
		<path class="st2" d="M260.39,143.79c0.06,0.01,0.12,0.02,0.17,0.04C260.5,143.81,260.45,143.8,260.39,143.79L260.39,143.79z"/>
		<path class="st6" d="M297.02,103.47l-9.91,40.27c5.84-0.22,11.69,0.18,17.55,2.68c3.08-12.24,6.1-23.86,9.09-34.65
			C308.16,106.76,302.58,104.44,297.02,103.47z"/>
	</g>
	<path class="st4" d="M255.32,101.08c0.11,0.05,0.22,0.09,0.33,0.13l0.21-0.71L252,99.39l-19.33,67.22l3.85,1.11l9.12-31.72
		c-0.07-0.07-0.15-0.12-0.22-0.19C248.77,125.04,252.07,113.37,255.32,101.08z"/>
	<path class="st2" d="M296.84,103.49c-0.39-0.07-0.79-0.12-1.18-0.18c-8.32-1.15-16.62,0.48-24.9,0.56c-0.2,0-0.41,0.01-0.61,0.01
		l-9.83,39.94c0.06,0.01,0.12,0.03,0.17,0.04c0.37,0.08,0.73,0.15,1.1,0.22c8.46,1.61,16.95,0,25.45-0.31l0,0l9.91-40.27
		C296.91,103.5,296.88,103.49,296.84,103.49z"/>
</g>
</svg>
